<?xml version="1.0" encoding="UTF-8"?>
<!-- Generator: Adobe Illustrator 25.0.0, SVG Export Plug-In . SVG Version: 6.00 Build 0)  -->
<svg version="1.1" id="Capa_1" xmlns="http://www.w3.org/2000/svg" xmlns:xlink="http://www.w3.org/1999/xlink" x="0px" y="0px" viewBox="0 0 736.3 193.7" style="enable-background:new 0 0 736.3 193.7;" xml:space="preserve">
<style type="text/css">
	.st0{fill:#2B2171;}
	.st1{fill:#F39200;}
	.st2{fill:#FFDE00;}
	.st3{fill:#E30613;}
</style>
<path class="st0" d="M163.5,32.4h66.9c3.4,0,6.6,0.7,9.9,2c3.2,1.3,6.4,3.6,9.5,6.8c5.4,5.6,8.3,14.2,8.6,25.5v4.1  c0,10.6-1.3,18.2-3.8,23c-1.7,2.4-3.4,4.6-5.2,6.6c-1.8,2-4.3,3.8-7.4,5.5c-0.1,0.1-0.3,0.3-0.5,0.5c-0.2,0.2-0.3,0.5-0.3,0.9  c0,0.2,0.1,0.5,0.2,0.7c2.8,3.6,4.7,6.7,5.9,9.4c1.1,2.7,2.2,5.5,3.1,8.4l9.9,30.4c0.2,1,0.7,1.8,1.4,2.6c0.6,0.8,1,1.3,1,1.5  c0,0.6-0.4,0.9-1.1,0.9h-24.8c-0.7,0-1.5-0.6-2.3-1.9s-1.4-2.3-1.6-3.1l-11.2-31.5c-1.7-6.7-5.1-10.4-10.2-11.1h-21.9  c-1.2,0-1.8,0.6-1.8,1.8v44.1c0,1.2-0.6,1.8-1.8,1.8h-22.5c-1.2,0-1.8-0.6-1.8-1.8V34.2C161.8,33,162.3,32.4,163.5,32.4 M189.6,55.8  c-1.2,0-1.8,0.6-1.8,1.8v29.3c0,1.2,0.6,1.8,2,1.8h32.6c1.7,0,3.5-0.8,5.6-2.5c1.7-1.4,3-3.5,3.9-6.3c0.9-2.8,1.4-5.8,1.4-9.2  c0-1.7-0.1-3.2-0.3-4.6c-0.2-1.4-0.6-2.7-1.2-3.9c-1.9-4-4.2-6.1-6.8-6.5L189.6,55.8L189.6,55.8z"/>
<path class="st0" d="M277.9,32.4h22.5c1.2,0,1.8,0.6,1.8,1.8v125.4c0,1.2-0.6,1.8-1.8,1.8h-22.5c-1.2,0-1.8-0.6-1.8-1.8V34.2  C276.1,33,276.7,32.4,277.9,32.4"/>
<path class="st0" d="M350.9,107.7c-3.7,0-7.7-0.5-12-1.4c-4.3-0.9-8.1-2.8-11.6-5.6c-2-1.7-3.8-3.7-5.1-6c-1.4-2.3-2.5-4.9-3.4-7.6  c-0.9-2.7-1.6-5.4-2-8.3c-0.4-2.8-0.6-5.6-0.6-8.4v-3.4c0-1.1,0.1-2.2,0.4-3.2c0.8-10.4,4.7-18.5,11.7-24.3c2-1.7,4.5-3.3,7.5-4.9  c3-1.6,5.9-2.3,8.8-2.3h59.5c1.2,0,1.8,0.6,1.8,1.8v19.8c0,1.2-0.6,1.8-1.8,1.8h-52c-1.7,0-3.2,0.8-4.6,2.2c-1.4,1.5-2.4,2.9-3,4.2  c-0.6,1.2-1,2.4-1.1,3.6s-0.2,2.4-0.2,3.6c0,1.9,0.1,3.9,0.4,5.9c0.2,2.1,1.1,3.8,2.5,5.4c1.3,1.3,3.1,2.1,5.5,2.3  c2.3,0.2,4.9,0.4,7.6,0.4h20.1c3.7,0,7.6,0.5,11.7,1.5c4.1,1,7.9,3,11.3,5.8c2,1.7,3.8,3.7,5.1,6.1c1.4,2.4,2.5,5,3.4,7.7  c0.9,2.8,1.5,5.6,1.9,8.6c0.4,3,0.5,5.9,0.5,8.6v3.8c0,1.1-0.1,2.1-0.4,3.1c-1,10.9-4.8,19.3-11.5,25.2c-2,1.7-4.5,3.3-7.5,4.9  c-3,1.6-5.7,2.4-8.4,2.4h-65.4c-1.2,0-1.8-0.6-1.8-1.8v-19.8c0-1.2,0.6-1.8,1.8-1.8h57.9c1.8,0,3.4-0.9,4.7-2.6  c1.3-1.7,2.3-3.3,2.9-4.8c0.6-1.3,1-2.6,1.1-3.8c0.1-1.2,0.2-2.5,0.2-3.8c0-1.9-0.1-3.9-0.4-6c-0.2-2.1-1.1-4-2.5-5.7  c-1.2-1.3-2.9-2.2-5.1-2.8c-2.2-0.6-4.8-0.8-7.8-0.8L350.9,107.7L350.9,107.7z"/>
<path class="st0" d="M481.9,159.5c0,1.2-0.6,1.8-1.8,1.8h-22.5c-1.2,0-1.8-0.6-1.8-1.8v-102c0-1.2-0.6-1.8-1.8-1.8h-29.3  c-1.2,0-1.8-0.6-1.8-1.8V34.2c0-1.2,0.6-1.8,1.8-1.8H513c1.2,0,1.8,0.6,1.8,1.8V54c0,1.2-0.6,1.8-1.8,1.8h-29.3  c-1.2,0-1.8,0.6-1.8,1.8V159.5z"/>
<path class="st0" d="M524.7,96.8c0-7.1,0.1-13.2,0.2-18.3c0.1-5.2,0.5-9.3,1.1-12.6c1-4.7,2-8.9,3.1-12.6c1.1-3.7,2.5-6.8,4.3-9.2  c2.4-3.1,5.4-5.8,9-8.2c3.6-2.3,7.4-4,11.5-4.9c2.9-0.6,6.7-0.9,11.3-1.1c4.7-0.1,10.2-0.2,16.7-0.2c6.5,0,12.1,0.1,16.7,0.2  c4.7,0.1,8.5,0.5,11.3,1.1c4.1,1,7.9,2.6,11.5,4.9c3.6,2.3,6.6,5.1,9,8.2c1.8,2.4,3.2,5.5,4.3,9.2c1.1,3.7,2.1,7.9,3.1,12.6  c0.6,3.2,1,7.4,1.1,12.6c0.1,5.2,0.2,11.3,0.2,18.3v1.1c0,7.1-0.1,13.2-0.2,18.4c-0.1,5.1-0.5,9.3-1.1,12.6c-1,4.7-2,8.9-3.1,12.6  c-1.1,3.7-2.5,6.8-4.3,9.2c-2.4,3.1-5.4,5.9-9,8.2c-3.6,2.4-7.4,4-11.5,4.9c-2.9,0.6-6.7,1-11.3,1.1c-4.7,0.1-10.2,0.2-16.7,0.2  c-6.5,0-12-0.1-16.7-0.2c-4.7-0.1-8.5-0.5-11.3-1.1c-4.1-1-7.9-2.6-11.5-4.9c-3.6-2.3-6.6-5.1-9-8.2c-1.8-2.4-3.2-5.5-4.3-9.2  c-1.1-3.7-2.1-7.9-3.1-12.6c-0.6-3.2-1-7.4-1.1-12.6c-0.1-5.2-0.2-11.3-0.2-18.4V96.8z M571.2,54.8c-3.4,0.2-6.2,0.6-8.6,1.2  c-4.3,1.1-7.4,3.2-9.2,6.4c-1.8,3.2-2.7,7.9-2.7,14.3V118c0,6.4,0.9,11.1,2.7,14.3c1.8,3.2,4.9,5.3,9.2,6.4c2.4,0.6,5.3,1,8.6,1.2  c3.3,0.2,6.9,0.3,10.6,0.3c3.7,0,7.3-0.1,10.6-0.3c3.4-0.2,6.2-0.6,8.6-1.2c4.3-1.1,7.4-3.2,9.2-6.4c1.8-3.2,2.7-7.9,2.7-14.3V76.6  c0-6.3-0.9-11.1-2.7-14.3c-1.8-3.2-4.8-5.3-9.2-6.4c-2.4-0.6-5.3-1-8.6-1.2s-6.9-0.3-10.6-0.3C578.1,54.5,574.6,54.6,571.2,54.8"/>
<path class="st0" d="M736.3,139.7v19.8c0,1.2-0.6,1.8-1.8,1.8h-49.5h-2.7c-0.8,0-1.6-0.1-2.2-0.2c-10-0.8-17-3.8-21.2-8.7  c-4.2-5-6.3-12.5-6.3-22.6V34.2c0-1.2,0.6-1.8,1.8-1.8H677c1.2,0,1.8,0.6,1.8,1.8V132c0,4,2.3,5.9,7,5.9h48.7  C735.7,137.9,736.3,138.5,736.3,139.7"/>
<path class="st0" d="M46.7,34.3c0-1.2,0.6-1.8,1.8-1.8h64.7c4.3,0,8.3,0.7,11.9,2.2c3.7,1.4,6.8,3.5,9.5,6.2c2.7,2.7,4.8,6,6.4,9.8  c1.6,3.8,2.4,8.2,2.4,12.9c0,6.5-0.5,11.6-1.6,15.4c-1.1,3.8-2.3,6.6-3.7,8.6c-1.4,2-2.6,3.3-3.7,4c-1.1,0.7-1.6,1.2-1.6,1.5  c0,0.6,0.9,1.9,2.8,3.8c1.9,1.9,3.9,4.1,6.2,6.6c0.8,1.1,1.6,2.3,2.2,3.8c0.7,1.4,1.2,2.9,1.7,4.4c0.5,1.5,0.8,3,1,4.5  c0.2,1.5,0.3,2.8,0.3,3.9c0,5.8-0.5,11.1-1.6,16.2c-1.1,5-3,9.4-5.6,13.1c-2.7,3.7-6.3,6.6-10.7,8.8c-4.4,2.2-10.1,3.2-16.9,3.2  H48.5c-1.2,0-1.8-0.6-1.8-1.8V34.3z M72.7,82.2c0,1.2,0.6,1.8,1.8,1.8h31.1c4.8,0,8.2-1.1,10.2-3.1c2-2.1,3.1-5.9,3.1-11.4  c0-5.2-1.3-8.7-4-10.7c-2.6-2-5.7-3-9.3-3H74.5c-1.2,0-1.8,0.6-1.8,1.8L72.7,82.2L72.7,82.2z M72.7,136.1c0,1.2,0.6,1.8,1.8,1.8  h37.9c2,0,3.7-0.5,5-1.6c1.3-1.1,2.4-2.4,3.2-4.1c0.8-1.6,1.4-3.3,1.7-5.1c0.3-1.8,0.4-3.4,0.4-4.7c0-2.8-0.3-5.1-1-6.9  c-0.7-1.9-1.5-3.3-2.5-4.4c-1-1.1-2.2-1.8-3.4-2.2s-2.4-0.6-3.5-0.6H74.5c-1.2,0-1.8,0.6-1.8,1.8L72.7,136.1L72.7,136.1z"/>
<path class="st1" d="M41.9,53.4L1,94.2c-1.4,1.4-1.4,3.6,0,5l40.9,40.9V53.4z"/>
<path class="st2" d="M114.2,166.2H67.7l26.5,26.5c1.4,1.4,3.7,1.4,5.1,0l26.5-26.5H114.2z"/>
<path class="st3" d="M115.5,27.5h10.1L99.2,1.1c-1.4-1.4-3.7-1.4-5.1,0L67.8,27.4h47.5C115.3,27.4,115.4,27.5,115.5,27.5"/>
</svg>